<svg version="1.1" id="Layer_1" xmlns="http://www.w3.org/2000/svg" xmlns:xlink="http://www.w3.org/1999/xlink" x="0px" y="0px"
	 width="100%" viewBox="0 0 1024 1024" enable-background="new 0 0 1024 1024" xml:space="preserve">
<path fill="#000000" opacity="1.000000" stroke="none" 
	d="
M1025.000000,923.531372 
	C1023.051941,921.591309 1020.059631,921.424744 1017.430237,920.490601 
	C1011.157043,918.261780 1006.307739,913.891296 1001.330078,909.742371 
	C997.110291,906.225159 992.562439,905.020935 986.980103,905.772217 
	C978.873718,906.863220 970.739136,906.135315 962.631653,904.707153 
	C951.433228,902.734619 942.311096,909.713318 939.579041,920.776062 
	C936.835693,931.884399 933.937683,942.939087 927.746704,952.967163 
	C923.320374,960.136902 920.630920,968.355347 916.754272,975.893982 
	C911.388000,986.329468 903.791016,986.942505 896.827393,977.672241 
	C892.926453,972.479370 887.855042,970.149597 881.414673,969.901550 
	C872.851440,969.571655 864.475281,970.873352 856.098145,972.205811 
	C852.137878,972.835754 848.544922,973.394592 846.066895,969.135742 
	C843.468994,964.671204 843.079651,960.247070 846.076843,955.989075 
	C849.233337,951.504883 852.729797,947.259583 856.086731,942.916931 
	C860.250000,937.531433 864.105591,931.866821 868.655396,926.829773 
	C879.050415,915.321777 892.297668,908.328247 907.368469,905.574768 
	C918.437805,903.552429 925.269775,895.869812 932.945251,889.162048 
	C935.619324,886.825195 936.477539,883.145203 936.963867,879.646912 
	C938.747314,866.819275 942.089417,854.555115 949.187744,843.513855 
	C950.239380,841.878113 950.699951,839.831787 951.279358,837.928345 
	C953.849304,829.485901 958.320984,822.307678 964.471313,815.910706 
	C977.726746,802.123474 990.650452,788.017456 1003.732300,774.062927 
	C1009.979187,767.399231 1016.920105,761.544922 1024.767090,756.246948 
	C1025.000000,811.687561 1025.000000,867.375122 1025.000000,923.531372 
z"/>
<path fill="#000000" opacity="1.000000" stroke="none" 
	d="
M886.468628,1025.000000 
	C889.005249,1023.776733 891.147827,1021.647095 893.074768,1019.038330 
	C895.025940,1016.396790 897.560547,1014.193970 899.741760,1011.712952 
	C910.342285,999.655273 921.032593,1004.309631 931.233582,1012.926392 
	C933.517822,1014.855835 935.020447,1017.555115 934.340515,1020.888367 
	C934.052612,1022.299377 934.526550,1023.496277 935.788940,1024.734619 
	C919.645752,1025.000000 903.291565,1025.000000 886.468628,1025.000000 
z"/>
<path fill="#000000" opacity="1.000000" stroke="none" 
	d="
M785.468628,1025.000000 
	C789.600464,1024.202759 792.891907,1021.239990 796.479126,1018.533752 
	C802.605713,1013.911743 809.623718,1010.835205 816.985657,1008.658630 
	C820.551758,1007.604309 828.530884,1013.421997 828.654541,1018.017456 
	C828.788879,1023.010010 831.414062,1024.143433 835.662598,1024.820801 
	C819.312439,1025.000000 802.624878,1025.000000 785.468628,1025.000000 
z"/>
<path fill="#000000" opacity="1.000000" stroke="none" 
	d="
M235.467941,1025.000000 
	C240.691254,1019.757202 246.532059,1020.506409 252.727722,1024.782227 
	C247.311966,1025.000000 241.623917,1025.000000 235.467941,1025.000000 
z"/>
<path fill="#000000" opacity="1.000000" stroke="none" 
	d="
M639.234802,543.171753 
	C635.542542,548.749878 632.162354,554.109802 628.453247,559.231506 
	C626.696289,561.657593 626.362488,563.411743 628.639771,565.675781 
	C634.664673,571.665588 640.564941,577.782593 646.435303,583.924927 
	C648.040955,585.604980 649.379272,585.270813 651.265198,584.349915 
	C660.738892,579.723694 669.091858,581.197205 676.306885,588.575989 
	C709.368347,622.388184 742.220154,656.409180 775.603577,689.900330 
	C786.320923,700.652222 793.787170,712.392151 794.194336,727.789062 
	C794.734497,748.218750 782.448181,766.519836 763.002258,774.758118 
	C744.555420,782.573181 723.195007,778.153076 708.755371,763.297791 
	C679.726990,733.433899 650.792725,703.478577 621.801514,673.578491 
	C616.931213,668.555481 611.906372,663.681580 607.065430,658.630981 
	C598.612000,649.811462 597.425842,641.613281 603.276855,630.961670 
	C604.568970,628.609375 604.456055,627.140015 602.643005,625.310364 
	C596.545898,619.157227 590.506409,612.945374 584.535400,606.669861 
	C581.976074,603.980042 579.988770,605.915894 577.991943,607.273315 
	C559.524597,619.827515 539.579407,629.378906 518.193909,635.646057 
	C467.848663,650.400024 418.550964,647.337830 370.491638,626.051270 
	C330.350830,608.271912 298.290527,580.943909 275.176025,543.668091 
	C253.463028,508.652435 242.303497,470.192688 245.137329,429.008759 
	C250.055130,357.538483 283.871460,302.455414 343.863007,263.539734 
	C370.386627,246.334229 399.621552,235.852844 430.954712,232.041214 
	C459.996521,228.508301 488.717773,230.741150 516.887207,239.330063 
	C565.169128,254.051331 604.012329,281.841370 632.841003,323.203003 
	C651.813232,350.423096 663.223083,380.742676 667.423401,413.749298 
	C673.323914,460.116547 663.395203,502.998108 639.234802,543.171753 
M353.052887,594.424622 
	C354.923981,595.514771 356.797302,596.601074 358.665771,597.695618 
	C398.168091,620.836914 440.681702,630.028809 485.881195,622.584656 
	C545.909424,612.698120 592.538452,581.753723 624.185364,529.481445 
	C644.034973,496.695068 651.841064,460.655640 648.426086,422.648773 
	C645.436646,389.378143 634.170410,358.728821 614.205078,331.683868 
	C577.850159,282.437683 528.928894,255.289566 468.016602,250.521957 
	C440.620850,248.377670 413.864319,252.967453 388.310669,263.283447 
	C345.461914,280.581482 311.801788,308.855988 288.897552,349.107117 
	C264.729401,391.579315 258.658081,437.012329 271.033661,484.192749 
	C283.418396,531.407898 312.106201,567.199768 353.052887,594.424622 
M633.207275,628.703430 
	C628.723206,633.292358 624.239075,637.881226 619.538269,642.691956 
	C630.672180,654.144836 641.437378,665.248596 652.235779,676.320007 
	C675.725891,700.404053 699.359558,724.349731 722.681030,748.595886 
	C734.844421,761.241577 752.357239,762.121033 764.889832,750.079163 
	C776.987732,738.454956 777.075806,720.293274 765.148926,708.113525 
	C751.627808,694.305786 738.154236,680.451416 724.653564,666.623718 
	C704.982178,646.475830 685.217834,626.417358 665.707886,606.114441 
	C662.040039,602.297546 659.497131,602.454651 656.027893,606.014160 
	C648.705994,613.526550 641.167114,620.827515 633.207275,628.703430 
M604.903259,585.429138 
	C602.880493,587.758240 599.756897,589.088867 598.021790,593.316895 
	C604.457642,599.437927 611.119507,605.708679 617.693909,612.069824 
	C619.478027,613.795959 620.843262,613.345886 622.358398,611.826355 
	C625.417053,608.758911 628.423523,605.629089 631.633362,602.726135 
	C634.102356,600.493225 633.879822,598.766724 631.572632,596.554443 
	C627.726257,592.866394 624.123779,588.924805 620.393311,585.114807 
	C613.095886,577.661804 613.088623,577.668884 604.903259,585.429138 
z"/>
<path fill="#000000" opacity="1.000000" stroke="none" 
	d="
M445.056580,673.776245 
	C472.824219,676.229309 499.673279,674.102783 525.899597,665.737610 
	C532.601929,663.599792 538.843445,660.463501 544.885071,656.927307 
	C549.923279,653.978516 552.832031,649.976318 552.986023,643.637329 
	C553.196655,634.968506 559.964294,630.653259 567.174988,633.842773 
	C570.949158,635.512146 572.873352,638.575928 572.898499,642.498840 
	C573.017090,660.980713 573.362976,679.475952 572.808716,697.941711 
	C572.490723,708.534302 565.097107,715.302979 556.913391,720.900269 
	C547.602112,727.268799 537.147766,731.179688 526.345337,734.142944 
	C483.713501,745.837646 441.161804,745.424927 398.810120,732.791748 
	C387.618591,729.453491 376.799866,725.079468 367.722961,717.344055 
	C360.649445,711.315918 356.504303,704.019226 356.686676,694.371887 
	C356.938446,681.053528 356.739349,667.727051 356.784851,654.404236 
	C356.806030,648.207581 358.747223,645.256775 363.359436,644.100708 
	C369.576965,642.542175 374.529358,644.485535 377.332947,649.598022 
	C380.766724,655.859619 386.827728,658.879150 392.900085,661.522339 
	C409.367767,668.690369 426.747406,672.280090 445.056580,673.776245 
M498.939606,720.446716 
	C513.634766,717.520569 528.313049,714.651184 541.585754,707.064514 
	C552.572388,700.784485 556.626404,689.098511 551.442810,676.161987 
	C524.158203,689.659302 494.884491,693.988708 464.842194,694.136108 
	C434.779205,694.283630 405.622803,689.524170 378.300690,676.284912 
	C373.207367,689.283813 377.021088,700.818420 388.170227,707.186707 
	C390.042084,708.255859 392.007599,709.182190 393.990997,710.031555 
	C414.344727,718.747437 435.866882,721.695862 457.741302,722.692871 
	C471.237732,723.307983 484.682739,722.321777 498.939606,720.446716 
z"/>
<path fill="#000000" opacity="1.000000" stroke="none" 
	d="
M742.951172,371.266876 
	C738.147949,366.588043 733.541016,362.239594 729.141846,357.690308 
	C726.876160,355.347382 725.230530,355.426086 722.978577,357.766815 
	C713.628357,367.485809 704.138977,377.070923 694.691406,386.696136 
	C693.411926,387.999634 692.186584,389.388794 690.753235,390.502838 
	C685.796997,394.355011 680.079041,394.160461 676.374695,390.135559 
	C672.716553,386.160858 672.901489,380.215668 677.308838,375.697968 
	C690.921204,361.744629 704.627563,347.881775 718.409729,334.096069 
	C723.053467,329.451172 728.040833,329.655670 733.515808,334.207947 
	C737.175354,337.250763 739.747986,341.499268 744.841064,344.528107 
	C750.128906,321.741455 754.277344,299.345428 758.682007,275.638000 
	C735.391479,279.680908 713.388184,284.598663 690.801575,289.457092 
	C693.415649,294.510223 697.127808,296.929230 700.030396,300.049347 
	C704.622253,304.985626 705.099854,311.263519 700.452209,316.114960 
	C691.463135,325.498291 682.260010,334.682434 672.965088,343.764282 
	C668.785522,347.848053 662.650940,347.908478 658.911865,344.427551 
	C654.915283,340.706879 654.608337,334.664337 658.773376,330.032837 
	C664.116516,324.091248 669.740784,318.384247 675.497864,312.839844 
	C679.084473,309.385803 679.133484,306.782806 675.288879,303.445404 
	C671.152405,299.854645 667.335693,295.846008 663.706299,291.731354 
	C657.119995,284.264465 659.804810,275.788605 669.549500,273.700989 
	C691.997803,268.891876 714.506287,264.363770 736.984680,259.694611 
	C746.924072,257.630066 756.848450,255.493607 766.782104,253.401413 
	C777.487122,251.146759 782.999878,256.173096 781.029602,267.067993 
	C778.424805,281.471863 775.305359,295.783691 772.335815,310.120331 
	C768.590027,328.204956 764.831177,346.287354 760.962646,364.345978 
	C758.799500,374.443695 751.989746,377.126465 742.951172,371.266876 
z"/>
<path fill="#000000" opacity="1.000000" stroke="none" 
	d="
M275.971252,613.975220 
	C280.667297,609.227783 285.087402,604.710022 289.553406,600.238098 
	C294.325287,595.459961 300.697357,594.864014 304.751068,598.761169 
	C308.788452,602.642578 308.528229,609.768494 303.885773,614.442810 
	C285.139923,633.317444 266.350098,652.148804 247.497208,670.916504 
	C242.476974,675.914062 236.146683,676.143311 232.033127,671.837219 
	C228.167175,667.790283 228.719437,661.630554 233.554810,656.736206 
	C247.581161,642.538940 261.658295,628.391846 275.971252,613.975220 
z"/>
<path fill="#000000" opacity="1.000000" stroke="none" 
	d="
M342.917053,565.113647 
	C311.953949,538.131042 291.513947,505.202759 285.116425,464.776611 
	C276.624573,411.116455 292.081970,364.280396 328.698822,324.504272 
	C359.464844,291.083740 398.030762,272.404480 443.021759,268.200073 
	C480.453491,264.702087 515.385925,274.004028 547.620605,293.328613 
	C584.073914,315.182312 609.923340,346.041534 622.872559,386.457214 
	C639.120422,437.168152 632.766357,485.669922 602.964905,530.060486 
	C574.522949,572.426086 534.041626,597.354004 483.899200,604.948547 
	C431.454224,612.891846 384.243317,599.325745 342.917053,565.113647 
M340.348419,535.159119 
	C378.792297,576.207397 426.191437,593.599976 481.578918,585.216553 
	C523.975098,578.799438 558.789490,557.714294 583.879944,522.246948 
	C605.197205,492.113342 614.756958,458.496979 610.390991,421.705811 
	C606.241699,386.740936 591.368408,356.404083 565.536987,332.460114 
	C519.888794,290.147186 466.730896,276.427673 407.107971,296.331055 
	C366.254669,309.968811 336.478912,337.617798 317.186920,376.210205 
	C304.786072,401.017334 300.370575,427.474670 303.626862,454.854584 
	C307.226044,485.117188 319.928802,511.608856 340.348419,535.159119 
z"/>
<path fill="#000000" opacity="1.000000" stroke="none" 
	d="
M479.861084,363.717102 
	C504.003174,365.708832 527.269287,369.307373 548.812439,380.149719 
	C555.903015,383.718292 562.151428,388.332062 567.181824,394.488007 
	C571.114014,399.300018 573.097961,404.929810 573.112000,411.104919 
	C573.183411,442.427551 573.266724,473.750946 573.113525,505.072937 
	C573.052551,517.518311 565.789978,525.769592 555.817261,531.963379 
	C539.087585,542.353699 520.438660,547.136963 501.252655,550.268066 
	C485.714111,552.803955 470.040039,552.686768 454.394775,552.285645 
	C429.539429,551.648438 405.391785,547.388550 382.688751,536.709595 
	C379.639923,535.275513 377.342621,534.197327 374.978210,538.271301 
	C372.541473,542.469788 367.936096,543.193481 363.447784,541.753784 
	C359.014740,540.331726 356.779755,536.947571 356.770905,532.248779 
	C356.742950,517.420471 356.741425,502.592194 356.738586,487.763885 
	C356.733765,462.772247 356.877441,437.779388 356.664307,412.789581 
	C356.580505,402.969208 360.762299,395.462555 367.787842,389.251556 
	C381.106506,377.476959 397.590668,372.772827 414.348663,368.715973 
	C435.759186,363.532867 457.528839,363.127106 479.861084,363.717102 
M386.827637,420.709778 
	C409.534119,433.045349 434.363953,436.506592 459.621826,437.580902 
	C480.705170,438.477600 501.518494,435.982788 521.767334,429.855835 
	C531.508240,426.908386 540.976746,423.208008 548.803101,416.319550 
	C553.695923,412.013153 553.840515,408.712341 549.141113,404.229950 
	C547.944275,403.088440 546.557190,402.134521 545.202026,401.172760 
	C535.919312,394.584930 525.241211,391.200714 514.400574,388.614624 
	C490.219147,382.846069 465.684753,381.516235 440.982880,384.395233 
	C422.215668,386.582520 403.762421,390.034760 387.045776,399.579987 
	C374.346832,406.831116 374.124512,412.268616 386.827637,420.709778 
M389.812317,491.828217 
	C385.912689,490.079224 382.013062,488.330261 377.919250,486.494171 
	C375.691376,491.356964 376.781647,496.077240 376.285156,500.615662 
	C375.568695,507.164886 378.814301,511.434448 383.891205,514.658020 
	C388.526245,517.600952 393.376465,520.134827 398.547119,522.111755 
	C420.818329,530.626953 443.986237,533.296204 467.631439,533.040527 
	C491.628632,532.780945 515.036865,529.604309 537.186401,519.629700 
	C552.053650,512.934631 557.665466,500.520142 551.817383,487.351440 
	C498.590973,509.260315 444.881958,510.719574 389.812317,491.828217 
M395.369415,446.305359 
	C389.475769,443.844574 383.582092,441.383820 377.585846,438.880219 
	C375.979156,443.289703 376.745087,447.338806 376.308319,451.264343 
	C375.507050,458.466217 378.734528,463.208099 384.527924,467.046356 
	C393.997559,473.320221 404.582642,476.793213 415.379791,479.534973 
	C443.713043,486.729645 472.438690,486.684448 501.107300,482.343903 
	C516.754028,479.974884 532.015503,475.635010 545.527710,466.741150 
	C548.655457,464.682495 552.078308,462.376617 552.426086,458.614563 
	C553.014893,452.246490 552.587891,445.784485 552.587891,439.089233 
	C500.987976,461.200073 448.933350,462.253204 395.369415,446.305359 
z"/>
<path fill="#000000" opacity="1.000000" stroke="none" 
	d="
M336.214905,378.274384 
	C359.191162,337.895660 393.061890,313.781036 438.850189,306.966492 
	C444.429779,306.136108 450.126221,305.934113 455.777618,305.784515 
	C462.365936,305.610107 466.639221,309.599915 466.645874,315.475891 
	C466.652771,321.563965 462.228607,326.240540 455.805267,326.088440 
	C445.026398,325.833099 434.580200,327.536316 424.269165,330.411224 
	C380.087585,342.729950 346.573242,382.132751 341.552155,427.729797 
	C341.188568,431.031586 341.359100,434.388916 341.176666,437.714661 
	C340.815735,444.294312 336.805573,448.272156 330.795319,448.108429 
	C325.186340,447.955627 321.039978,443.782562 321.091797,437.551300 
	C321.265137,416.706848 326.345184,397.053101 336.214905,378.274384 
z"/>
</svg>